<svg width="129" height="32" viewBox="0 0 129 32" fill="none" xmlns="http://www.w3.org/2000/svg">
<path d="M33.5568 9.25309H36.3961V20.0713H41.6585V22.513H33.5568V9.25309Z" fill="#2E343F"/>
<path d="M42.9367 20.2607C42.502 19.4597 42.2831 18.5594 42.3016 17.6482C42.2831 16.7371 42.502 15.8368 42.9367 15.0358C43.35 14.2873 43.9759 13.6782 44.7353 13.2852C45.5768 12.8795 46.4989 12.6688 47.4331 12.6688C48.3673 12.6688 49.2895 12.8795 50.131 13.2852C50.8892 13.6797 51.5147 14.2885 51.9296 15.0358C52.3622 15.8375 52.5801 16.7374 52.562 17.6482C52.5823 18.5627 52.3643 19.4667 51.9296 20.2714C51.5119 21.0139 50.8869 21.6185 50.131 22.0113C49.2895 22.417 48.3673 22.6277 47.4331 22.6277C46.4989 22.6277 45.5768 22.417 44.7353 22.0113C43.9759 21.6183 43.35 21.0092 42.9367 20.2607ZM49.8562 17.6482C49.8862 16.9151 49.6502 16.1957 49.1917 15.6228C48.9759 15.3702 48.7054 15.1699 48.4007 15.0372C48.096 14.9045 47.7652 14.8429 47.4331 14.857C47.1014 14.8436 46.771 14.9067 46.4674 15.0414C46.1639 15.176 45.8954 15.3786 45.6826 15.6335C45.2268 16.2073 44.9945 16.9269 45.0288 17.6589C44.9945 18.3909 45.2268 19.1105 45.6826 19.6843C45.8954 19.9392 46.1639 20.1418 46.4674 20.2765C46.771 20.4111 47.1014 20.4742 47.4331 20.4609C47.7669 20.4723 48.0988 20.4074 48.4036 20.271C48.7084 20.1345 48.978 19.9302 49.1917 19.6737C49.6502 19.1008 49.8862 18.3814 49.8562 17.6482Z" fill="#2E343F"/>
<path d="M54.2939 20.2607C53.8592 19.4597 53.6403 18.5594 53.6588 17.6483C53.6403 16.7371 53.8592 15.8368 54.2939 15.0358C54.7072 14.2873 55.3331 13.6782 56.0925 13.2852C56.9335 12.8796 57.8552 12.6689 58.789 12.6689C59.7228 12.6689 60.6445 12.8796 61.4855 13.2852C62.2449 13.6782 62.8708 14.2873 63.2841 15.0358C63.7188 15.8368 63.9377 16.7371 63.9192 17.6483C63.9399 18.5631 63.721 19.4674 63.2841 20.2714C62.868 21.015 62.2426 21.62 61.4855 22.0113C60.6445 22.417 59.7228 22.6276 58.789 22.6276C57.8552 22.6276 56.9335 22.417 56.0925 22.0113C55.3331 21.6183 54.7072 21.0092 54.2939 20.2607ZM61.2134 17.6483C61.2464 16.9164 61.0143 16.1972 60.5596 15.6229C60.336 15.3782 60.064 15.1828 59.7607 15.0491C59.4575 14.9154 59.1297 14.8464 58.7984 14.8464C58.467 14.8464 58.1392 14.9154 57.836 15.0491C57.5327 15.1828 57.2607 15.3782 57.0371 15.6229C56.5872 16.1991 56.3599 16.9181 56.3967 17.6483C56.3629 18.3798 56.5941 19.0989 57.0478 19.6737C57.2713 19.9183 57.5434 20.1137 57.8466 20.2474C58.1499 20.3811 58.4776 20.4501 58.809 20.4501C59.1404 20.4501 59.4682 20.3811 59.7714 20.2474C60.0747 20.1137 60.3467 19.9183 60.5703 19.6737C61.0211 19.0978 61.2494 18.3787 61.2134 17.6483Z" fill="#2E343F"/>
<path d="M68.0634 9.25309V16.9278L71.8874 12.7835H74.8789L71.4098 16.5889L75.0763 22.513H71.9835L69.5231 18.5769L68.0634 20.146V22.513H65.3949V9.25309H68.0634Z" fill="#2E343F"/>
<path d="M78.3613 20.3168C78.7921 20.6027 79.3016 20.7464 79.8183 20.7277C80.2784 20.7514 80.737 20.6597 81.1526 20.4609C81.3057 20.3916 81.435 20.2787 81.5242 20.1363C81.6134 19.9939 81.6587 19.8283 81.6542 19.6603C81.6624 19.5545 81.6462 19.4483 81.6069 19.3498C81.5676 19.2512 81.5062 19.163 81.4274 19.0919C81.2376 18.9527 81.017 18.8612 80.7843 18.8251C80.5175 18.769 80.0531 18.7023 79.4207 18.6276C78.6985 18.5408 77.9845 18.3954 77.2859 18.1926C76.7647 18.0428 76.2937 17.7551 75.9223 17.3601C75.5656 16.938 75.3824 16.3963 75.4099 15.8443C75.403 15.2429 75.5901 14.6552 75.9436 14.1685C76.3161 13.6626 76.8239 13.2722 77.4086 13.0424C78.1008 12.7664 78.8411 12.6312 79.5861 12.6448C80.9115 12.6572 81.9789 12.941 82.7884 13.496C83.1771 13.7473 83.4996 14.0885 83.7286 14.4907C83.9576 14.893 84.0863 15.3444 84.1039 15.807H81.5689C81.5485 15.6228 81.4859 15.4459 81.3859 15.2899C81.2859 15.1339 81.1513 15.0031 80.9925 14.9077C80.5929 14.6599 80.128 14.5381 79.6582 14.5581C79.2334 14.5384 78.8114 14.6363 78.4387 14.841C78.2996 14.913 78.1828 15.0216 78.1009 15.1552C78.0191 15.2888 77.9753 15.4422 77.9743 15.5988C77.9683 15.6977 77.9876 15.7965 78.0306 15.8857C78.0736 15.9749 78.1388 16.0517 78.2199 16.1085C78.4146 16.2351 78.6337 16.3196 78.863 16.3567C79.1298 16.4047 79.5701 16.4634 80.1972 16.5248C81.5101 16.6778 82.5171 16.9589 83.218 17.3681C83.9172 17.779 84.2667 18.4808 84.2667 19.4789C84.2759 20.0812 84.0792 20.6687 83.709 21.144C83.3026 21.6486 82.7654 22.0317 82.1559 22.2515C81.4202 22.5238 80.64 22.6559 79.8557 22.6411C78.5054 22.6411 77.4077 22.3413 76.5627 21.7418C76.161 21.4689 75.8303 21.1039 75.5982 20.6774C75.3661 20.2508 75.2393 19.7749 75.2284 19.2894H77.7449C77.763 19.4962 77.8279 19.6961 77.9347 19.8741C78.0415 20.0521 78.1874 20.2035 78.3613 20.3168Z" fill="#2E343F"/>
<path d="M90.4177 22.6277C89.4966 22.6486 88.5851 22.4365 87.7678 22.0113C87.0242 21.6135 86.4151 21.0043 86.0173 20.2607C85.5969 19.4551 85.3858 18.5568 85.4035 17.6483C85.3833 16.7369 85.5945 15.8354 86.0173 15.0278C86.4192 14.2856 87.0321 13.6792 87.7785 13.2852C88.6021 12.859 89.5199 12.647 90.447 12.6688C91.7475 12.6688 92.8069 13.0006 93.6252 13.6642C94.4623 14.356 95.0043 15.3407 95.1409 16.4181H92.3683C92.2763 15.971 92.0366 15.5678 91.6879 15.2733C91.3299 14.9823 90.8787 14.8306 90.4177 14.8463C90.0986 14.8355 89.7814 14.9003 89.4921 15.0352C89.2027 15.1701 88.9493 15.3715 88.7525 15.6229C88.3154 16.2049 88.0946 16.9211 88.1281 17.6483C88.0946 18.3754 88.3154 19.0916 88.7525 19.6737C88.9482 19.927 89.2011 20.1304 89.4906 20.2672C89.78 20.404 90.0977 20.4704 90.4177 20.4609C90.8883 20.4774 91.349 20.3229 91.7146 20.0259C92.0709 19.7189 92.3088 19.2969 92.387 18.8331H95.1329C95.0082 19.9222 94.4693 20.9216 93.6279 21.6244C92.8006 22.2933 91.7306 22.6277 90.4177 22.6277Z" fill="#2E343F"/>
<path d="M96.6913 20.2607C96.2567 19.4597 96.0378 18.5594 96.0562 17.6483C96.0378 16.7371 96.2567 15.8368 96.6913 15.0358C97.1047 14.2873 97.7306 13.6782 98.4899 13.2852C99.331 12.8796 100.253 12.6689 101.186 12.6689C102.12 12.6689 103.042 12.8796 103.883 13.2852C104.642 13.6782 105.268 14.2873 105.682 15.0358C106.116 15.8368 106.335 16.7371 106.317 17.6483C106.337 18.5631 106.118 19.4674 105.682 20.2714C105.269 21.0131 104.648 21.6179 103.896 22.0113C103.055 22.417 102.134 22.6276 101.2 22.6276C100.266 22.6276 99.3443 22.417 98.5033 22.0113C97.739 21.6205 97.1082 21.0111 96.6913 20.2607ZM103.611 17.6483C103.644 16.9164 103.412 16.1972 102.957 15.6229C102.733 15.3782 102.461 15.1828 102.158 15.0491C101.855 14.9154 101.527 14.8464 101.196 14.8464C100.864 14.8464 100.537 14.9154 100.233 15.0491C99.9302 15.1828 99.6581 15.3782 99.4346 15.6229C98.9808 16.1976 98.7497 16.9168 98.7835 17.6483C98.7497 18.3798 98.9808 19.0989 99.4346 19.6737C99.6581 19.9183 99.9302 20.1137 100.233 20.2474C100.537 20.3811 100.864 20.4501 101.196 20.4501C101.527 20.4501 101.855 20.3811 102.158 20.2474C102.461 20.1137 102.733 19.9183 102.957 19.6737C103.413 19.0996 103.646 18.3804 103.613 17.6483H103.611Z" fill="#2E343F"/>
<path d="M116.956 22.513H114.592L114.344 21.3388C114.002 21.7629 113.565 22.1006 113.069 22.3245C112.572 22.5485 112.03 22.6523 111.486 22.6277C110.975 22.6472 110.465 22.5643 109.986 22.3837C109.508 22.2031 109.07 21.9286 108.7 21.5763C107.988 20.8772 107.632 19.7066 107.632 18.0645V12.7835H110.301V17.7416C110.301 18.6276 110.456 19.2921 110.765 19.7404C110.926 19.9655 111.142 20.1455 111.393 20.2632C111.643 20.381 111.919 20.4325 112.195 20.4128C112.496 20.4263 112.794 20.3652 113.065 20.2347C113.335 20.1043 113.569 19.9088 113.746 19.6656C114.114 19.1666 114.296 18.4675 114.296 17.5735V12.7835H116.964L116.956 22.513Z" fill="#2E343F"/>
<path d="M117.903 15.0358V12.7835H119.505V10.0536H122.173V12.7835H124.388V15.0358H122.173V19.3054C122.149 19.5703 122.226 19.8344 122.389 20.0446C122.49 20.1293 122.606 20.193 122.732 20.232C122.857 20.2709 122.99 20.2843 123.12 20.2714H124.5V22.5236H122.309C120.452 22.5236 119.524 21.5959 119.526 19.7404V15.0358H117.903Z" fill="#2E343F"/>
<path d="M18.3564 7.19999L4.5 15.2V10.4L14.2026 4.79999L18.3564 7.19999Z" fill="#2E343F"/>
<path d="M23.9051 10.4V13.1692L6.9 22.9846L4.5 21.6V18.9949L21.6385 9.09742L23.9051 10.4Z" fill="#2E343F"/>
<path d="M10.1821 24.882L23.9051 16.9641V21.6L14.2026 27.2L10.1821 24.882Z" fill="#2E343F"/>
</svg>
