<svg width="49" height="48" viewBox="0 0 49 48" fill="none" xmlns="http://www.w3.org/2000/svg">
<rect x="0.5" width="48" height="48" rx="24" fill="#437EF7"/>
<path d="M32.5001 19.9999C35.4456 19.9999 37.8334 17.6121 37.8334 14.6666C37.8334 11.7211 35.4456 9.33325 32.5001 9.33325C29.5546 9.33325 27.1667 11.7211 27.1667 14.6666C27.1667 15.1695 27.2364 15.6562 27.3665 16.1176L20.2888 20.2462C19.3223 19.2708 17.9817 18.6666 16.5001 18.6666C13.5546 18.6666 11.1667 21.0544 11.1667 23.9999C11.1667 26.9454 13.5546 29.3333 16.5001 29.3333C17.9817 29.3333 19.3223 28.7291 20.2888 27.7536L27.3665 31.8823C27.2364 32.3436 27.1667 32.8303 27.1667 33.3333C27.1667 36.2788 29.5546 38.6666 32.5001 38.6666C35.4456 38.6666 37.8334 36.2788 37.8334 33.3333C37.8334 30.3877 35.4456 27.9999 32.5001 27.9999C31.0184 27.9999 29.6779 28.6041 28.7114 29.5796L21.6337 25.4509C21.7638 24.9896 21.8334 24.5029 21.8334 23.9999C21.8334 23.497 21.7638 23.0103 21.6337 22.5489L28.7114 18.4203C29.6779 19.3957 31.0184 19.9999 32.5001 19.9999Z" fill="white"/>
</svg>
