<svg width="49" height="48" viewBox="0 0 49 48" fill="none" xmlns="http://www.w3.org/2000/svg">
<rect x="0.5" width="48" height="48" rx="24" fill="#437EF7"/>
<path fill-rule="evenodd" clip-rule="evenodd" d="M24.4999 9.33325C16.3997 9.33325 9.83325 15.8997 9.83325 23.9999C9.83325 32.1001 16.3997 38.6666 24.4999 38.6666C32.6001 38.6666 39.1666 32.1001 39.1666 23.9999C39.1666 15.8997 32.6001 9.33325 24.4999 9.33325ZM31.3408 17.1591C29.7953 15.6135 27.2895 15.6135 25.744 17.1591C25.2233 17.6798 25.2233 18.524 25.744 19.0447C26.2647 19.5654 27.1089 19.5654 27.6296 19.0447C28.1337 18.5406 28.951 18.5406 29.4552 19.0447C29.9593 19.5488 29.9593 20.3661 29.4552 20.8703L25.744 24.5815C25.4509 24.8745 25.0532 24.9981 24.6673 24.9492C23.9367 24.8568 23.2696 25.3741 23.1771 26.1047C23.0847 26.8352 23.602 27.5024 24.3326 27.5948C25.5011 27.7427 26.729 27.3677 27.6296 26.4671L31.3408 22.7559C32.8863 21.2104 32.8863 18.7046 31.3408 17.1591ZM24.6673 20.405C23.4988 20.2572 22.2709 20.6322 21.3703 21.5328L17.6591 25.244C16.1135 26.7895 16.1135 29.2953 17.6591 30.8408C19.2046 32.3863 21.7104 32.3863 23.2559 30.8408C23.7766 30.3201 23.7766 29.4759 23.2559 28.9552C22.7352 28.4345 21.891 28.4345 21.3703 28.9552C20.8661 29.4593 20.0488 29.4593 19.5447 28.9552C19.0406 28.451 19.0406 27.6337 19.5447 27.1296L23.2559 23.4184C23.549 23.1253 23.9466 23.0018 24.3326 23.0506C25.0631 23.143 25.7303 22.6257 25.8227 21.8952C25.9151 21.1646 25.3978 20.4975 24.6673 20.405Z" fill="white"/>
</svg>
