<svg width="49" height="48" viewBox="0 0 49 48" fill="none" xmlns="http://www.w3.org/2000/svg">
<rect x="0.5" width="48" height="48" rx="24" fill="#437EF7"/>
<path d="M18.7769 16.3913C19.0268 15.8691 19.1667 15.2843 19.1667 14.6667C19.1667 12.4576 17.3759 10.6667 15.1667 10.6667C12.9576 10.6667 11.1667 12.4576 11.1667 14.6667C11.1667 16.8759 12.9576 18.6667 15.1667 18.6667C15.7843 18.6667 16.3691 18.5268 16.8913 18.2769L18.9379 20.3236C18.2399 21.3775 17.8334 22.6413 17.8334 24.0001C17.8334 25.3589 18.2399 26.6227 18.9379 27.6766L17.1908 29.4237C16.9705 29.3648 16.739 29.3334 16.5001 29.3334C15.0273 29.3334 13.8334 30.5273 13.8334 32.0001C13.8334 33.4728 15.0273 34.6667 16.5001 34.6667C17.9728 34.6667 19.1667 33.4728 19.1667 32.0001C19.1667 31.7612 19.1353 31.5297 19.0764 31.3094L20.8236 29.5622C21.8775 30.2602 23.1413 30.6667 24.5001 30.6667C25.8589 30.6667 27.1227 30.2602 28.1766 29.5622L30.2232 31.6089C29.9734 32.131 29.8334 32.7159 29.8334 33.3334C29.8334 35.5426 31.6243 37.3334 33.8334 37.3334C36.0426 37.3334 37.8334 35.5426 37.8334 33.3334C37.8334 31.1243 36.0426 29.3334 33.8334 29.3334C33.2159 29.3334 32.631 29.4734 32.1089 29.7232L30.0622 27.6766C30.7602 26.6227 31.1667 25.3589 31.1667 24.0001C31.1667 22.6413 30.7602 21.3775 30.0622 20.3236L31.8094 18.5764C32.0297 18.6353 32.2612 18.6667 32.5001 18.6667C33.9728 18.6667 35.1667 17.4728 35.1667 16.0001C35.1667 14.5273 33.9728 13.3334 32.5001 13.3334C31.0273 13.3334 29.8334 14.5273 29.8334 16.0001C29.8334 16.239 29.8648 16.4705 29.9237 16.6908L28.1766 18.4379C27.1227 17.7399 25.8589 17.3334 24.5001 17.3334C23.1413 17.3334 21.8775 17.7399 20.8236 18.4379L18.7769 16.3913Z" fill="white"/>
</svg>
