<svg width="49" height="48" viewBox="0 0 49 48" fill="none" xmlns="http://www.w3.org/2000/svg">
<rect x="0.5" width="48" height="48" rx="24" fill="#437EF7"/>
<path d="M24.5001 10.6666C19.3454 10.6666 15.1667 14.8453 15.1667 20C15.1667 21.3814 15.4677 22.6961 16.0089 23.8791C16.346 24.616 16.728 25.3402 17.0931 26.0299L17.133 26.1051C17.4896 26.7785 17.8291 27.4197 18.1316 28.0647C18.7602 29.4047 19.1667 30.6372 19.1667 31.8807C19.1667 32.683 19.8171 33.3333 20.6193 33.3333H28.3809C29.1831 33.3333 29.8334 32.683 29.8334 31.8807C29.8334 30.6372 30.24 29.4047 30.8685 28.0647C31.171 27.4197 31.5106 26.7786 31.8672 26.1052L31.907 26.0299C32.2722 25.3402 32.6541 24.616 32.9912 23.8791C33.5324 22.6961 33.8334 21.3814 33.8334 20C33.8334 14.8453 29.6547 10.6666 24.5001 10.6666Z" fill="white"/>
<path d="M20.5001 34.6666C19.7637 34.6666 19.1667 35.2636 19.1667 36C19.1667 36.7363 19.7637 37.3333 20.5001 37.3333H28.5001C29.2365 37.3333 29.8334 36.7363 29.8334 36C29.8334 35.2636 29.2365 34.6666 28.5001 34.6666H20.5001Z" fill="white"/>
</svg>
