<svg width="49" height="48" viewBox="0 0 49 48" fill="none" xmlns="http://www.w3.org/2000/svg">
<rect x="0.5" width="48" height="48" rx="24" fill="#437EF7"/>
<path d="M31.5572 22.2761L23.3541 30.4792C22.0989 28.2472 20.2528 26.4011 18.0208 25.1459L28.3248 14.8418C28.8528 14.3138 29.1169 14.0498 29.4213 13.9509C29.6891 13.8639 29.9775 13.8639 30.2453 13.9509C30.5498 14.0498 30.8138 14.3138 31.3418 14.8418L33.6582 17.1582C34.1862 17.6862 34.4502 17.9502 34.5491 18.2546C34.6361 18.5224 34.6361 18.8109 34.5491 19.0787C34.4502 19.3831 34.1862 19.6471 33.6582 20.1752L33.4428 20.3905L35.6381 22.5858C36.4191 23.3668 36.4191 24.6332 35.6381 25.4142L32.1095 28.9428C31.5888 29.4635 30.7446 29.4635 30.2239 28.9428C29.7032 28.4221 29.7032 27.5779 30.2239 27.0572L33.281 24L31.5572 22.2761Z" fill="white"/>
<path d="M16.1815 27.6222L15.1826 30.619C14.7483 31.9217 14.5312 32.5731 14.6856 33.0063C14.8201 33.3833 15.1167 33.6799 15.4937 33.8144C15.9268 33.9688 16.5782 33.7517 17.881 33.3174L20.8778 32.3185C21.0288 32.2682 21.148 32.2284 21.2477 32.1931C20.1637 30.0669 18.4331 28.3363 16.3068 27.2523C16.2716 27.3519 16.2318 27.4712 16.1815 27.6222Z" fill="white"/>
</svg>
