<svg width="49" height="48" viewBox="0 0 49 48" fill="none" xmlns="http://www.w3.org/2000/svg">
<rect x="0.5" width="48" height="48" rx="24" fill="#437EF7"/>
<path d="M10.5758 19.3796C10.0941 20.8323 9.83325 22.3857 9.83325 24C9.83325 29.5392 12.9039 34.3611 17.4359 36.8565L22.7446 24.6889L10.5758 19.3796Z" fill="white"/>
<path d="M11.6434 16.936L23.1666 21.9636V9.39313C18.1935 9.84127 13.9363 12.7717 11.6434 16.936Z" fill="white"/>
<path d="M24.4999 38.6667C22.8856 38.6667 21.3322 38.4059 19.8795 37.9241L25.7106 24.5593C25.7516 24.4708 25.7831 24.3771 25.8039 24.2794C25.8261 24.1765 25.8356 24.0728 25.8333 23.9702V9.39313C33.3086 10.0668 39.1666 16.3493 39.1666 24C39.1666 32.1002 32.6001 38.6667 24.4999 38.6667Z" fill="white"/>
</svg>
