<svg width="113" height="28" viewBox="0 0 113 28" fill="none" xmlns="http://www.w3.org/2000/svg">
<path d="M91.1933 13.496L95.3499 24.5C94.1249 24.3251 92.9006 24.1059 91.654 23.9085L89.3125 17.8284L86.9066 23.4066C85.7257 23.2092 84.5658 23.1434 83.3848 22.9901L87.6066 13.3652L83.7775 3.5H87.3216L89.465 9.01182L91.7624 3.5H95.3493L91.1933 13.496ZM80.979 3.5H77.7632V22.575C78.8132 22.6408 79.9065 22.6842 80.979 22.8151V3.5ZM74.9849 22.356C72.054 22.1592 69.1223 21.9849 66.1257 21.9184V3.50008H69.4066V18.8125C71.2882 18.8559 73.1691 19.0086 74.9849 19.096V22.356ZM62.6249 10.9599V14.2408H58.1408V21.7H54.904V3.5H64.0915V6.78089H58.1415V10.96H62.6256L62.6249 10.9599ZM49.3908 6.78089V21.875C48.2967 21.875 47.1816 21.875 46.1092 21.9184V6.78089H42.7184V3.5H52.8025V6.78089H49.3908ZM39.1751 14.4151C37.7316 14.4151 36.025 14.4151 34.8 14.4816V19.3592C36.725 19.2276 38.65 19.075 40.5966 19.0092V22.1592L31.5191 22.8816V3.5H40.596V6.78089H34.7999V11.2C36.069 11.2 38.0157 11.1342 39.1749 11.1342V14.4158L39.1751 14.4151ZM20.996 12.5776V24.0401C19.8158 24.1717 18.765 24.325 17.6499 24.5V3.5H20.7783L25.0434 15.4225V3.5H28.325V23.1434C27.1658 23.3408 25.9842 23.4066 24.7375 23.5809L20.996 12.5776Z" fill="white"/>
</svg>
